0
SECTION
2
HEADER
9
$ACADVER
1
AC1015
9
$INSUNITS
70
4
9
$MEASUREMENT
70
1
0
ENDSEC
0
SECTION
2
ENTITIES
0
LINE
100
AcDbEntity
8
CUT
100
AcDbLine
10
0
20
0
30
0
11
20
21
0
31
0
0
LINE
100
AcDbEntity
8
CUT
100
AcDbLine
10
20
20
0
30
0
11
20
21
45
31
0
0
LINE
100
AcDbEntity
8
CUT
100
AcDbLine
10
15
20
50
30
0
11
5
21
50
31
0
0
LINE
100
AcDbEntity
8
CUT
100
AcDbLine
10
0
20
45
30
0
11
0
21
0
31
0
0
ARC
100
AcDbEntity
8
CUT
100
AcDbCircle
10
15
20
45
30
0
40
5
100
AcDbArc
50
0
51
90
0
ARC
100
AcDbEntity
8
CUT
100
AcDbCircle
10
5
20
45
30
0
40
5
100
AcDbArc
50
90
51
180
0
CIRCLE
100
AcDbEntity
8
CUT
100
AcDbCircle
10
10
20
40
30
0
40
3
0
ENDSEC
0
EOF
