0
SECTION
2
HEADER
9
$ACADVER
1
AC1015
9
$INSUNITS
70
4
9
$MEASUREMENT
70
1
0
ENDSEC
0
SECTION
2
ENTITIES
0
LWPOLYLINE
100
AcDbEntity
8
OUTLINE
100
AcDbPolyline
90
6
70
1
10
0
20
0
10
95.210164453
20
152.758058985
10
49.5153985277
20
173.055555556
10
1.10218211923e-14
20
180
10
-49.5153985277
20
173.055555556
10
-95.210164453
20
152.758058985
0
LWPOLYLINE
100
AcDbEntity
8
SLOT_SINGLE_PASS_NO_OFFSET
100
AcDbPolyline
90
2
70
0
10
8.25256642129
20
28.8425925926
10
15.4047906531
20
53.8395061728
0
LWPOLYLINE
100
AcDbEntity
8
SLOT_SINGLE_PASS_NO_OFFSET
100
AcDbPolyline
90
2
70
0
10
22.5570148848
20
78.8364197531
10
29.7092391166
20
103.833333333
0
LWPOLYLINE
100
AcDbEntity
8
SLOT_SINGLE_PASS_NO_OFFSET
100
AcDbPolyline
90
2
70
0
10
36.8614633484
20
128.830246914
10
44.0136875802
20
153.827160494
0
LWPOLYLINE
100
AcDbEntity
8
SLOT_SINGLE_PASS_NO_OFFSET
100
AcDbPolyline
90
2
70
0
10
1.83697019872e-15
20
30
10
3.42901103761e-15
20
56
0
LWPOLYLINE
100
AcDbEntity
8
SLOT_SINGLE_PASS_NO_OFFSET
100
AcDbPolyline
90
2
70
0
10
5.0210518765e-15
20
82
10
6.6130927154e-15
20
108
0
LWPOLYLINE
100
AcDbEntity
8
SLOT_SINGLE_PASS_NO_OFFSET
100
AcDbPolyline
90
2
70
0
10
8.20513355429e-15
20
134
10
9.79717439318e-15
20
160
0
LWPOLYLINE
100
AcDbEntity
8
SLOT_SINGLE_PASS_NO_OFFSET
100
AcDbPolyline
90
2
70
0
10
-8.25256642129
20
28.8425925926
10
-15.4047906531
20
53.8395061728
0
LWPOLYLINE
100
AcDbEntity
8
SLOT_SINGLE_PASS_NO_OFFSET
100
AcDbPolyline
90
2
70
0
10
-22.5570148848
20
78.8364197531
10
-29.7092391166
20
103.833333333
0
LWPOLYLINE
100
AcDbEntity
8
SLOT_SINGLE_PASS_NO_OFFSET
100
AcDbPolyline
90
2
70
0
10
-36.8614633484
20
128.830246914
10
-44.0136875802
20
153.827160494
0
ENDSEC
0
EOF
