0
SECTION
2
HEADER
9
$ACADVER
1
AC1015
9
$INSUNITS
70
4
9
$MEASUREMENT
70
1
0
ENDSEC
0
SECTION
2
ENTITIES
0
LINE
100
AcDbEntity
8
CUT
100
AcDbLine
10
0.0
20
6.0
30
0
11
0.0
21
12.0
31
0
0
LINE
100
AcDbEntity
8
CUT
100
AcDbLine
10
0.0
20
12.0
30
0
11
0.0
21
18.0
31
0
0
ARC
100
AcDbEntity
8
CUT
100
AcDbCircle
10
6.0
20
18.0
30
0
40
6.0
100
AcDbArc
50
90.0
51
180.0
0
LINE
100
AcDbEntity
8
CUT
100
AcDbLine
10
6.0
20
24.0
30
0
11
78.0
21
24.0
31
0
0
ARC
100
AcDbEntity
8
CUT
100
AcDbCircle
10
78.0
20
18.0
30
0
40
6.0
100
AcDbArc
50
0.0
51
90.0
0
LINE
100
AcDbEntity
8
CUT
100
AcDbLine
10
84.0
20
6.0
30
0
11
84.0
21
18.0
31
0
0
ARC
100
AcDbEntity
8
CUT
100
AcDbCircle
10
78.0
20
6.0
30
0
40
6.0
100
AcDbArc
50
270.0
51
0.0
0
LINE
100
AcDbEntity
8
CUT
100
AcDbLine
10
6.0
20
0.0
30
0
11
78.0
21
0.0
31
0
0
ARC
100
AcDbEntity
8
CUT
100
AcDbCircle
10
6.0
20
6.0
30
0
40
6.0
100
AcDbArc
50
180.0
51
270.0
0
CIRCLE
100
AcDbEntity
8
CUT
100
AcDbCircle
10
74.0
20
14.0
30
0
40
5.0
0
CIRCLE
100
AcDbEntity
8
CUT
100
AcDbCircle
10
59.0
20
14.0
30
0
40
5.0
0
CIRCLE
100
AcDbEntity
8
CUT
100
AcDbCircle
10
44.0
20
14.0
30
0
40
5.0
0
CIRCLE
100
AcDbEntity
8
CUT
100
AcDbCircle
10
29.0
20
14.0
30
0
40
5.0
0
ARC
100
AcDbEntity
8
CUT
100
AcDbCircle
10
9.0
20
12.0
30
0
40
9.0
100
AcDbArc
50
180.0
51
90.0
0
ARC
100
AcDbEntity
8
CUT
100
AcDbCircle
10
9.0
20
12.0
30
0
40
9.0
100
AcDbArc
50
90.0
51
180.0
0
ENDSEC
0
EOF
