0
SECTION
2
HEADER
9
$ACADVER
1
AC1015
9
$INSUNITS
70
4
9
$MEASUREMENT
70
1
0
ENDSEC
0
SECTION
2
ENTITIES
0
LINE
100
AcDbEntity
8
CUT
100
AcDbLine
10
0.0
20
0.0
30
0
11
20.0
21
0.0
31
0
0
LINE
100
AcDbEntity
8
CUT
100
AcDbLine
10
0.0
20
55.0
30
0
11
0.0
21
0.0
31
0
0
LINE
100
AcDbEntity
8
CUT
100
AcDbLine
10
20.0
20
0.0
30
0
11
20.0
21
23.0
31
0
0
ARC
100
AcDbEntity
8
CUT
100
AcDbCircle
10
5.0
20
55.0
30
0
40
5.000000000000001
100
AcDbArc
50
90.0
51
180.0
0
LINE
100
AcDbEntity
8
CUT
100
AcDbLine
10
20.0
20
23.0
30
0
11
30.0
21
23.0
31
0
0
LINE
100
AcDbEntity
8
CUT
100
AcDbLine
10
15.0
20
60.0
30
0
11
5.0
21
60.0
31
0
0
ARC
100
AcDbEntity
8
CUT
100
AcDbCircle
10
30.0
20
35.0
30
0
40
12.0
100
AcDbArc
50
270.0
51
90.0
0
ARC
100
AcDbEntity
8
CUT
100
AcDbCircle
10
15.0
20
55.0
30
0
40
5.0
100
AcDbArc
50
0.0
51
90.0
0
LINE
100
AcDbEntity
8
CUT
100
AcDbLine
10
30.0
20
47.0
30
0
11
20.0
21
47.0
31
0
0
LINE
100
AcDbEntity
8
CUT
100
AcDbLine
10
20.0
20
47.0
30
0
11
20.0
21
55.0
31
0
0
CIRCLE
100
AcDbEntity
8
CUT
100
AcDbCircle
10
10.0
20
20.0
30
0
40
3.0
0
CIRCLE
100
AcDbEntity
8
CUT
100
AcDbCircle
10
10.0
20
50.0
30
0
40
3.0
0
CIRCLE
100
AcDbEntity
8
CUT
100
AcDbCircle
10
30.0
20
35.0
30
0
40
3.0
0
ENDSEC
0
EOF
