0
SECTION
2
HEADER
9
$ACADVER
1
AC1015
9
$INSUNITS
70
4
9
$MEASUREMENT
70
1
0
ENDSEC
0
SECTION
2
ENTITIES
0
LINE
100
AcDbEntity
8
CUT
100
AcDbLine
10
0.0
20
0.16802777784391765
30
0
11
0.0
21
4.154498104008894
31
0
0
ARC
100
AcDbEntity
8
CUT
100
AcDbCircle
10
1.4099999999999966
20
6.0
30
0
40
6.0
100
AcDbArc
50
256.40837722605215
51
270.0
0
ARC
100
AcDbEntity
8
CUT
100
AcDbCircle
10
4.409999999999997
20
12.0
30
0
40
9.0
100
AcDbArc
50
240.65941842497628
51
90.0
0
LINE
100
AcDbEntity
8
CUT
100
AcDbLine
10
1.4099999999999966
20
0.0
30
0
11
73.41
21
0.0
31
0
0
ARC
100
AcDbEntity
8
CUT
100
AcDbCircle
10
4.409999999999997
20
12.0
30
0
40
9.0
100
AcDbArc
50
90.0
51
119.34058157502372
0
ARC
100
AcDbEntity
8
CUT
100
AcDbCircle
10
73.41
20
6.0
30
0
40
6.0
100
AcDbArc
50
270.0
51
0.0
0
LINE
100
AcDbEntity
8
CUT
100
AcDbLine
10
0.0
20
19.845501895991106
30
0
11
0.0
21
23.831972222156082
31
0
0
LINE
100
AcDbEntity
8
CUT
100
AcDbLine
10
79.41
20
6.0
30
0
11
79.41
21
18.0
31
0
0
ARC
100
AcDbEntity
8
CUT
100
AcDbCircle
10
1.4099999999999966
20
18.0
30
0
40
6.0
100
AcDbArc
50
90.0
51
103.59162277394782
0
ARC
100
AcDbEntity
8
CUT
100
AcDbCircle
10
73.41
20
18.0
30
0
40
6.0
100
AcDbArc
50
0.0
51
90.0
0
LINE
100
AcDbEntity
8
CUT
100
AcDbLine
10
1.4099999999999966
20
24.0
30
0
11
73.41
21
24.0
31
0
0
CIRCLE
100
AcDbEntity
8
CUT
100
AcDbCircle
10
69.41
20
14.0
30
0
40
5.0
0
CIRCLE
100
AcDbEntity
8
CUT
100
AcDbCircle
10
54.41
20
14.0
30
0
40
5.0
0
CIRCLE
100
AcDbEntity
8
CUT
100
AcDbCircle
10
39.41
20
14.0
30
0
40
5.0
0
CIRCLE
100
AcDbEntity
8
CUT
100
AcDbCircle
10
24.409999999999997
20
14.0
30
0
40
5.0
0
ENDSEC
0
EOF
