0
SECTION
2
HEADER
9
$ACADVER
1
AC1015
9
$INSUNITS
70
4
9
$MEASUREMENT
70
1
0
ENDSEC
0
SECTION
2
ENTITIES
0
LWPOLYLINE
100
AcDbEntity
8
CUT
100
AcDbPolyline
90
10
70
1
10
93.4064132533
20
0
10
66.0483082177
20
66.0483082177
10
5.71949325052e-15
20
93.4064132533
10
-66.0483082177
20
66.0483082177
10
-93.4064132533
20
1.1438986501e-14
10
-66.346608246
20
8.12511614227e-15
10
-46.9141365995
20
46.9141365995
10
4.06255807114e-15
20
66.346608246
10
46.9141365995
20
46.9141365995
10
66.346608246
20
0
0
LWPOLYLINE
100
AcDbEntity
8
CUT
100
AcDbPolyline
90
4
70
1
10
-65.1
20
34.9
10
-61.9
20
34.9
10
-61.9
20
55.1
10
-65.1
20
55.1
0
LWPOLYLINE
100
AcDbEntity
8
CUT
100
AcDbPolyline
90
4
70
1
10
61.9
20
34.9
10
65.1
20
34.9
10
65.1
20
55.1
10
61.9
20
55.1
0
ENDSEC
0
EOF
